<mxfile host="app.diagrams.net" agent="Mozilla/5.0 (Windows NT 10.0; Win64; x64) AppleWebKit/537.36 (KHTML, like Gecko) Chrome/137.0.0.0 Safari/537.36" version="27.1.0">
  <diagram name="페이지-1" id="2ZUeOMSqnqANXjBzBvZ2">
    <mxGraphModel dx="3329" dy="1334" grid="0" gridSize="10" guides="1" tooltips="1" connect="1" arrows="1" fold="1" page="1" pageScale="1" pageWidth="827" pageHeight="1169" math="0" shadow="0">
      <root>
        <mxCell id="0" />
        <mxCell id="1" parent="0" />
        <mxCell id="hJSbbheGE9ecB6tRiey5-121" value="" style="rounded=0;whiteSpace=wrap;html=1;" vertex="1" parent="1">
          <mxGeometry x="-5" y="1275" width="825" height="3124" as="geometry" />
        </mxCell>
        <mxCell id="hJSbbheGE9ecB6tRiey5-120" value="&lt;font style=&quot;font-size: 30px;&quot;&gt;while (1)&lt;/font&gt;" style="rounded=0;whiteSpace=wrap;html=1;" vertex="1" parent="1">
          <mxGeometry x="-5" y="1218" width="825" height="61" as="geometry" />
        </mxCell>
        <mxCell id="hJSbbheGE9ecB6tRiey5-1" value="Program Start" style="ellipse;aspect=fixed;strokeWidth=2;whiteSpace=wrap;fontSize=30;" vertex="1" parent="1">
          <mxGeometry x="597" y="20" width="114" height="114" as="geometry" />
        </mxCell>
        <mxCell id="hJSbbheGE9ecB6tRiey5-2" value="Save start time" style="whiteSpace=wrap;strokeWidth=2;fontSize=30;" vertex="1" parent="1">
          <mxGeometry x="569" y="184" width="169" height="54" as="geometry" />
        </mxCell>
        <mxCell id="hJSbbheGE9ecB6tRiey5-3" value="Register SIGINT handler" style="whiteSpace=wrap;strokeWidth=2;fontSize=30;" vertex="1" parent="1">
          <mxGeometry x="539" y="288" width="228" height="54" as="geometry" />
        </mxCell>
        <mxCell id="hJSbbheGE9ecB6tRiey5-4" value="Init semaphore" style="whiteSpace=wrap;strokeWidth=2;fontSize=30;" vertex="1" parent="1">
          <mxGeometry x="570" y="392" width="167" height="54" as="geometry" />
        </mxCell>
        <mxCell id="hJSbbheGE9ecB6tRiey5-5" value="Save parent PID" style="whiteSpace=wrap;strokeWidth=2;fontSize=30;" vertex="1" parent="1">
          <mxGeometry x="567" y="496" width="173" height="54" as="geometry" />
        </mxCell>
        <mxCell id="hJSbbheGE9ecB6tRiey5-6" value="Get home directory" style="whiteSpace=wrap;strokeWidth=2;fontSize=30;" vertex="1" parent="1">
          <mxGeometry x="553" y="600" width="200" height="54" as="geometry" />
        </mxCell>
        <mxCell id="hJSbbheGE9ecB6tRiey5-7" value="Create logfile directory" style="whiteSpace=wrap;strokeWidth=2;fontSize=30;" vertex="1" parent="1">
          <mxGeometry x="539" y="704" width="228" height="54" as="geometry" />
        </mxCell>
        <mxCell id="hJSbbheGE9ecB6tRiey5-8" value="Create server socket" style="whiteSpace=wrap;strokeWidth=2;fontSize=30;" vertex="1" parent="1">
          <mxGeometry x="550" y="808" width="208" height="54" as="geometry" />
        </mxCell>
        <mxCell id="hJSbbheGE9ecB6tRiey5-9" value="Set server address" style="whiteSpace=wrap;strokeWidth=2;fontSize=30;" vertex="1" parent="1">
          <mxGeometry x="558" y="912" width="191" height="54" as="geometry" />
        </mxCell>
        <mxCell id="hJSbbheGE9ecB6tRiey5-10" value="Bind socket" style="whiteSpace=wrap;strokeWidth=2;fontSize=30;" vertex="1" parent="1">
          <mxGeometry x="582" y="1016" width="142" height="54" as="geometry" />
        </mxCell>
        <mxCell id="hJSbbheGE9ecB6tRiey5-11" value="Listen for client" style="whiteSpace=wrap;strokeWidth=2;fontSize=30;" vertex="1" parent="1">
          <mxGeometry x="566" y="1120" width="174" height="54" as="geometry" />
        </mxCell>
        <mxCell id="hJSbbheGE9ecB6tRiey5-13" value="Accept client connection" style="whiteSpace=wrap;strokeWidth=2;fontSize=30;" vertex="1" parent="1">
          <mxGeometry x="270" y="1328" width="239" height="54" as="geometry" />
        </mxCell>
        <mxCell id="hJSbbheGE9ecB6tRiey5-14" value="Call fork" style="whiteSpace=wrap;strokeWidth=2;fontSize=30;" vertex="1" parent="1">
          <mxGeometry x="329" y="1457" width="121" height="54" as="geometry" />
        </mxCell>
        <mxCell id="hJSbbheGE9ecB6tRiey5-15" value="Is child process" style="rhombus;strokeWidth=2;whiteSpace=wrap;fontSize=30;" vertex="1" parent="1">
          <mxGeometry x="308" y="1609" width="163" height="163" as="geometry" />
        </mxCell>
        <mxCell id="hJSbbheGE9ecB6tRiey5-16" value="Close server socket" style="whiteSpace=wrap;strokeWidth=2;fontSize=30;" vertex="1" parent="1">
          <mxGeometry x="164" y="1822" width="198" height="54" as="geometry" />
        </mxCell>
        <mxCell id="hJSbbheGE9ecB6tRiey5-17" value="Save child start time" style="whiteSpace=wrap;strokeWidth=2;fontSize=30;" vertex="1" parent="1">
          <mxGeometry x="159" y="1938" width="209" height="54" as="geometry" />
        </mxCell>
        <mxCell id="hJSbbheGE9ecB6tRiey5-18" value="Receive HTTP request" style="whiteSpace=wrap;strokeWidth=2;fontSize=30;" vertex="1" parent="1">
          <mxGeometry x="155" y="2054" width="217" height="54" as="geometry" />
        </mxCell>
        <mxCell id="hJSbbheGE9ecB6tRiey5-19" value="Check method and URL" style="whiteSpace=wrap;strokeWidth=2;fontSize=30;" vertex="1" parent="1">
          <mxGeometry x="151" y="2158" width="226" height="54" as="geometry" />
        </mxCell>
        <mxCell id="hJSbbheGE9ecB6tRiey5-20" value="Perform hash" style="whiteSpace=wrap;strokeWidth=2;fontSize=30;" vertex="1" parent="1">
          <mxGeometry x="186" y="2262" width="154" height="54" as="geometry" />
        </mxCell>
        <mxCell id="hJSbbheGE9ecB6tRiey5-21" value="Create cache directory" style="whiteSpace=wrap;strokeWidth=2;fontSize=30;" vertex="1" parent="1">
          <mxGeometry x="151" y="2366" width="225" height="54" as="geometry" />
        </mxCell>
        <mxCell id="hJSbbheGE9ecB6tRiey5-22" value="Check for cache file" style="whiteSpace=wrap;strokeWidth=2;fontSize=30;" vertex="1" parent="1">
          <mxGeometry x="162" y="2496" width="204" height="54" as="geometry" />
        </mxCell>
        <mxCell id="hJSbbheGE9ecB6tRiey5-23" value="Cache hit or miss" style="rhombus;strokeWidth=2;whiteSpace=wrap;fontSize=30;" vertex="1" parent="1">
          <mxGeometry x="175" y="2626" width="177" height="177" as="geometry" />
        </mxCell>
        <mxCell id="hJSbbheGE9ecB6tRiey5-24" value="isURL check hit" style="whiteSpace=wrap;strokeWidth=2;fontSize=30;" vertex="1" parent="1">
          <mxGeometry x="47" y="3581" width="169" height="54" as="geometry" />
        </mxCell>
        <mxCell id="hJSbbheGE9ecB6tRiey5-25" value="Semaphore wait" style="whiteSpace=wrap;strokeWidth=2;fontSize=30;" vertex="1" parent="1">
          <mxGeometry x="44" y="3685" width="175" height="54" as="geometry" />
        </mxCell>
        <mxCell id="hJSbbheGE9ecB6tRiey5-26" value="Create hit log message" style="whiteSpace=wrap;strokeWidth=2;fontSize=30;" vertex="1" parent="1">
          <mxGeometry x="20" y="3789" width="224" height="54" as="geometry" />
        </mxCell>
        <mxCell id="hJSbbheGE9ecB6tRiey5-27" value="Create thread" style="whiteSpace=wrap;strokeWidth=2;fontSize=30;" vertex="1" parent="1">
          <mxGeometry x="52" y="3893" width="160" height="54" as="geometry" />
        </mxCell>
        <mxCell id="hJSbbheGE9ecB6tRiey5-28" value="Join thread" style="whiteSpace=wrap;strokeWidth=2;fontSize=30;" vertex="1" parent="1">
          <mxGeometry x="61" y="3997" width="142" height="54" as="geometry" />
        </mxCell>
        <mxCell id="hJSbbheGE9ecB6tRiey5-29" value="Semaphore post" style="whiteSpace=wrap;strokeWidth=2;fontSize=30;" vertex="1" parent="1">
          <mxGeometry x="45" y="4101" width="174" height="54" as="geometry" />
        </mxCell>
        <mxCell id="hJSbbheGE9ecB6tRiey5-30" value="Send cache data" style="whiteSpace=wrap;strokeWidth=2;fontSize=30;" vertex="1" parent="1">
          <mxGeometry x="43" y="4205" width="178" height="54" as="geometry" />
        </mxCell>
        <mxCell id="hJSbbheGE9ecB6tRiey5-31" value="isURL check miss" style="whiteSpace=wrap;strokeWidth=2;fontSize=30;" vertex="1" parent="1">
          <mxGeometry x="305" y="2853" width="180" height="54" as="geometry" />
        </mxCell>
        <mxCell id="hJSbbheGE9ecB6tRiey5-32" value="Semaphore wait" style="whiteSpace=wrap;strokeWidth=2;fontSize=30;" vertex="1" parent="1">
          <mxGeometry x="308" y="2957" width="175" height="54" as="geometry" />
        </mxCell>
        <mxCell id="hJSbbheGE9ecB6tRiey5-33" value="Create miss log message" style="whiteSpace=wrap;strokeWidth=2;fontSize=30;" vertex="1" parent="1">
          <mxGeometry x="278" y="3061" width="235" height="54" as="geometry" />
        </mxCell>
        <mxCell id="hJSbbheGE9ecB6tRiey5-34" value="Create thread" style="whiteSpace=wrap;strokeWidth=2;fontSize=30;" vertex="1" parent="1">
          <mxGeometry x="315" y="3165" width="160" height="54" as="geometry" />
        </mxCell>
        <mxCell id="hJSbbheGE9ecB6tRiey5-35" value="Join thread" style="whiteSpace=wrap;strokeWidth=2;fontSize=30;" vertex="1" parent="1">
          <mxGeometry x="324" y="3269" width="142" height="54" as="geometry" />
        </mxCell>
        <mxCell id="hJSbbheGE9ecB6tRiey5-36" value="Semaphore post" style="whiteSpace=wrap;strokeWidth=2;fontSize=30;" vertex="1" parent="1">
          <mxGeometry x="308" y="3373" width="174" height="54" as="geometry" />
        </mxCell>
        <mxCell id="hJSbbheGE9ecB6tRiey5-37" value="Parse request info" style="whiteSpace=wrap;strokeWidth=2;fontSize=30;" vertex="1" parent="1">
          <mxGeometry x="300" y="3477" width="190" height="54" as="geometry" />
        </mxCell>
        <mxCell id="hJSbbheGE9ecB6tRiey5-38" value="Get server address" style="whiteSpace=wrap;strokeWidth=2;fontSize=30;" vertex="1" parent="1">
          <mxGeometry x="298" y="3581" width="194" height="54" as="geometry" />
        </mxCell>
        <mxCell id="hJSbbheGE9ecB6tRiey5-39" value="Create socket and connect" style="whiteSpace=wrap;strokeWidth=2;fontSize=30;" vertex="1" parent="1">
          <mxGeometry x="269" y="3685" width="252" height="54" as="geometry" />
        </mxCell>
        <mxCell id="hJSbbheGE9ecB6tRiey5-40" value="Build request line" style="whiteSpace=wrap;strokeWidth=2;fontSize=30;" vertex="1" parent="1">
          <mxGeometry x="302" y="3789" width="187" height="54" as="geometry" />
        </mxCell>
        <mxCell id="hJSbbheGE9ecB6tRiey5-41" value="Send request" style="whiteSpace=wrap;strokeWidth=2;fontSize=30;" vertex="1" parent="1">
          <mxGeometry x="319" y="3893" width="153" height="54" as="geometry" />
        </mxCell>
        <mxCell id="hJSbbheGE9ecB6tRiey5-42" value="Receive response" style="whiteSpace=wrap;strokeWidth=2;fontSize=30;" vertex="1" parent="1">
          <mxGeometry x="304" y="3997" width="183" height="54" as="geometry" />
        </mxCell>
        <mxCell id="hJSbbheGE9ecB6tRiey5-43" value="Send to browser" style="whiteSpace=wrap;strokeWidth=2;fontSize=30;" vertex="1" parent="1">
          <mxGeometry x="307" y="4101" width="176" height="54" as="geometry" />
        </mxCell>
        <mxCell id="hJSbbheGE9ecB6tRiey5-44" value="Write to cache" style="whiteSpace=wrap;strokeWidth=2;fontSize=30;" vertex="1" parent="1">
          <mxGeometry x="313" y="4205" width="165" height="54" as="geometry" />
        </mxCell>
        <mxCell id="hJSbbheGE9ecB6tRiey5-45" value="Close socket and exit" style="whiteSpace=wrap;strokeWidth=2;fontSize=30;" vertex="1" parent="1">
          <mxGeometry x="157" y="4309" width="212" height="54" as="geometry" />
        </mxCell>
        <mxCell id="hJSbbheGE9ecB6tRiey5-46" value="Increase child count" style="whiteSpace=wrap;strokeWidth=2;fontSize=30;" vertex="1" parent="1">
          <mxGeometry x="415" y="1822" width="205" height="54" as="geometry" />
        </mxCell>
        <mxCell id="hJSbbheGE9ecB6tRiey5-47" value="Close client socket" style="whiteSpace=wrap;strokeWidth=2;fontSize=30;" vertex="1" parent="1">
          <mxGeometry x="420" y="1938" width="195" height="54" as="geometry" />
        </mxCell>
        <mxCell id="hJSbbheGE9ecB6tRiey5-48" value="Waitpid for zombie" style="whiteSpace=wrap;strokeWidth=2;fontSize=30;" vertex="1" parent="1">
          <mxGeometry x="602" y="2054" width="196" height="54" as="geometry" />
        </mxCell>
        <mxCell id="hJSbbheGE9ecB6tRiey5-49" value="SIGINT Trigger" style="whiteSpace=wrap;strokeWidth=2;fontSize=30;" vertex="1" parent="1">
          <mxGeometry x="869" y="1372" width="160" height="54" as="geometry" />
        </mxCell>
        <mxCell id="hJSbbheGE9ecB6tRiey5-50" value="Is child" style="rhombus;strokeWidth=2;whiteSpace=wrap;fontSize=30;" vertex="1" parent="1">
          <mxGeometry x="895" y="1457" width="105" height="105" as="geometry" />
        </mxCell>
        <mxCell id="hJSbbheGE9ecB6tRiey5-51" value="Exit" style="whiteSpace=wrap;strokeWidth=2;fontSize=30;" vertex="1" parent="1">
          <mxGeometry x="829" y="1595" width="88" height="54" as="geometry" />
        </mxCell>
        <mxCell id="hJSbbheGE9ecB6tRiey5-52" value="Save end time" style="whiteSpace=wrap;strokeWidth=2;fontSize=30;" vertex="1" parent="1">
          <mxGeometry x="885" y="1664" width="162" height="54" as="geometry" />
        </mxCell>
        <mxCell id="hJSbbheGE9ecB6tRiey5-53" value="Semaphore wait" style="whiteSpace=wrap;strokeWidth=2;fontSize=30;" vertex="1" parent="1">
          <mxGeometry x="878" y="1822" width="175" height="54" as="geometry" />
        </mxCell>
        <mxCell id="hJSbbheGE9ecB6tRiey5-54" value="Create termination log message" style="whiteSpace=wrap;strokeWidth=2;fontSize=30;" vertex="1" parent="1">
          <mxGeometry x="835" y="1926" width="260" height="78" as="geometry" />
        </mxCell>
        <mxCell id="hJSbbheGE9ecB6tRiey5-55" value="Create thread" style="whiteSpace=wrap;strokeWidth=2;fontSize=30;" vertex="1" parent="1">
          <mxGeometry x="885" y="2054" width="160" height="54" as="geometry" />
        </mxCell>
        <mxCell id="hJSbbheGE9ecB6tRiey5-56" value="Join thread" style="whiteSpace=wrap;strokeWidth=2;fontSize=30;" vertex="1" parent="1">
          <mxGeometry x="895" y="2158" width="142" height="54" as="geometry" />
        </mxCell>
        <mxCell id="hJSbbheGE9ecB6tRiey5-57" value="Semaphore post" style="whiteSpace=wrap;strokeWidth=2;fontSize=30;" vertex="1" parent="1">
          <mxGeometry x="878" y="2262" width="174" height="54" as="geometry" />
        </mxCell>
        <mxCell id="hJSbbheGE9ecB6tRiey5-58" value="Remove semaphore" style="whiteSpace=wrap;strokeWidth=2;fontSize=30;" vertex="1" parent="1">
          <mxGeometry x="866" y="2366" width="199" height="54" as="geometry" />
        </mxCell>
        <mxCell id="hJSbbheGE9ecB6tRiey5-59" value="Program Exit" style="ellipse;aspect=fixed;strokeWidth=2;whiteSpace=wrap;fontSize=30;" vertex="1" parent="1">
          <mxGeometry x="912" y="2470" width="106" height="106" as="geometry" />
        </mxCell>
        <mxCell id="hJSbbheGE9ecB6tRiey5-60" value="" style="curved=1;startArrow=none;endArrow=block;exitX=0.5;exitY=1;entryX=0.5;entryY=0;rounded=0;fontSize=30;" edge="1" parent="1" source="hJSbbheGE9ecB6tRiey5-1" target="hJSbbheGE9ecB6tRiey5-2">
          <mxGeometry relative="1" as="geometry">
            <Array as="points" />
          </mxGeometry>
        </mxCell>
        <mxCell id="hJSbbheGE9ecB6tRiey5-61" value="" style="curved=1;startArrow=none;endArrow=block;exitX=0.5;exitY=1;entryX=0.5;entryY=0;rounded=0;fontSize=30;" edge="1" parent="1" source="hJSbbheGE9ecB6tRiey5-2" target="hJSbbheGE9ecB6tRiey5-3">
          <mxGeometry relative="1" as="geometry">
            <Array as="points" />
          </mxGeometry>
        </mxCell>
        <mxCell id="hJSbbheGE9ecB6tRiey5-62" value="" style="curved=1;startArrow=none;endArrow=block;exitX=0.5;exitY=1;entryX=0.5;entryY=0;rounded=0;fontSize=30;" edge="1" parent="1" source="hJSbbheGE9ecB6tRiey5-3" target="hJSbbheGE9ecB6tRiey5-4">
          <mxGeometry relative="1" as="geometry">
            <Array as="points" />
          </mxGeometry>
        </mxCell>
        <mxCell id="hJSbbheGE9ecB6tRiey5-63" value="" style="curved=1;startArrow=none;endArrow=block;exitX=0.5;exitY=0.99;entryX=0.5;entryY=-0.01;rounded=0;fontSize=30;" edge="1" parent="1" source="hJSbbheGE9ecB6tRiey5-4" target="hJSbbheGE9ecB6tRiey5-5">
          <mxGeometry relative="1" as="geometry">
            <Array as="points" />
          </mxGeometry>
        </mxCell>
        <mxCell id="hJSbbheGE9ecB6tRiey5-64" value="" style="curved=1;startArrow=none;endArrow=block;exitX=0.5;exitY=0.99;entryX=0.5;entryY=-0.01;rounded=0;fontSize=30;" edge="1" parent="1" source="hJSbbheGE9ecB6tRiey5-5" target="hJSbbheGE9ecB6tRiey5-6">
          <mxGeometry relative="1" as="geometry">
            <Array as="points" />
          </mxGeometry>
        </mxCell>
        <mxCell id="hJSbbheGE9ecB6tRiey5-65" value="" style="curved=1;startArrow=none;endArrow=block;exitX=0.5;exitY=0.99;entryX=0.5;entryY=-0.01;rounded=0;fontSize=30;" edge="1" parent="1" source="hJSbbheGE9ecB6tRiey5-6" target="hJSbbheGE9ecB6tRiey5-7">
          <mxGeometry relative="1" as="geometry">
            <Array as="points" />
          </mxGeometry>
        </mxCell>
        <mxCell id="hJSbbheGE9ecB6tRiey5-66" value="" style="curved=1;startArrow=none;endArrow=block;exitX=0.5;exitY=0.99;entryX=0.5;entryY=-0.01;rounded=0;fontSize=30;" edge="1" parent="1" source="hJSbbheGE9ecB6tRiey5-7" target="hJSbbheGE9ecB6tRiey5-8">
          <mxGeometry relative="1" as="geometry">
            <Array as="points" />
          </mxGeometry>
        </mxCell>
        <mxCell id="hJSbbheGE9ecB6tRiey5-67" value="" style="curved=1;startArrow=none;endArrow=block;exitX=0.5;exitY=0.99;entryX=0.5;entryY=-0.01;rounded=0;fontSize=30;" edge="1" parent="1" source="hJSbbheGE9ecB6tRiey5-8" target="hJSbbheGE9ecB6tRiey5-9">
          <mxGeometry relative="1" as="geometry">
            <Array as="points" />
          </mxGeometry>
        </mxCell>
        <mxCell id="hJSbbheGE9ecB6tRiey5-68" value="" style="curved=1;startArrow=none;endArrow=block;exitX=0.5;exitY=0.99;entryX=0.5;entryY=-0.01;rounded=0;fontSize=30;" edge="1" parent="1" source="hJSbbheGE9ecB6tRiey5-9" target="hJSbbheGE9ecB6tRiey5-10">
          <mxGeometry relative="1" as="geometry">
            <Array as="points" />
          </mxGeometry>
        </mxCell>
        <mxCell id="hJSbbheGE9ecB6tRiey5-69" value="" style="curved=1;startArrow=none;endArrow=block;exitX=0.5;exitY=0.99;entryX=0.5;entryY=-0.01;rounded=0;fontSize=30;" edge="1" parent="1" source="hJSbbheGE9ecB6tRiey5-10" target="hJSbbheGE9ecB6tRiey5-11">
          <mxGeometry relative="1" as="geometry">
            <Array as="points" />
          </mxGeometry>
        </mxCell>
        <mxCell id="hJSbbheGE9ecB6tRiey5-70" value="" style="curved=1;startArrow=none;endArrow=block;exitX=0.5;exitY=0.99;entryX=0.5;entryY=-0.01;rounded=0;fontSize=30;" edge="1" parent="1" source="hJSbbheGE9ecB6tRiey5-11">
          <mxGeometry relative="1" as="geometry">
            <Array as="points" />
            <mxPoint x="653.5" y="1224" as="targetPoint" />
          </mxGeometry>
        </mxCell>
        <mxCell id="hJSbbheGE9ecB6tRiey5-71" value="" style="curved=1;startArrow=none;endArrow=block;entryX=0.5;entryY=-0.01;rounded=0;fontSize=30;" edge="1" parent="1" target="hJSbbheGE9ecB6tRiey5-13">
          <mxGeometry relative="1" as="geometry">
            <Array as="points">
              <mxPoint x="389" y="1303" />
            </Array>
            <mxPoint x="551" y="1280" as="sourcePoint" />
          </mxGeometry>
        </mxCell>
        <mxCell id="hJSbbheGE9ecB6tRiey5-72" value="" style="curved=1;startArrow=none;endArrow=block;exitX=0.5;exitY=0.99;entryX=0.5;entryY=0;rounded=0;fontSize=30;" edge="1" parent="1" source="hJSbbheGE9ecB6tRiey5-13" target="hJSbbheGE9ecB6tRiey5-14">
          <mxGeometry relative="1" as="geometry">
            <Array as="points" />
          </mxGeometry>
        </mxCell>
        <mxCell id="hJSbbheGE9ecB6tRiey5-73" value="" style="curved=1;startArrow=none;endArrow=block;exitX=0.5;exitY=1;entryX=0.5;entryY=0;rounded=0;fontSize=30;" edge="1" parent="1" source="hJSbbheGE9ecB6tRiey5-14" target="hJSbbheGE9ecB6tRiey5-15">
          <mxGeometry relative="1" as="geometry">
            <Array as="points" />
          </mxGeometry>
        </mxCell>
        <mxCell id="hJSbbheGE9ecB6tRiey5-74" value="" style="curved=1;startArrow=none;endArrow=block;exitX=0;exitY=0.92;entryX=0.5;entryY=0;rounded=0;fontSize=30;" edge="1" parent="1" source="hJSbbheGE9ecB6tRiey5-15" target="hJSbbheGE9ecB6tRiey5-16">
          <mxGeometry relative="1" as="geometry">
            <Array as="points">
              <mxPoint x="264" y="1797" />
            </Array>
          </mxGeometry>
        </mxCell>
        <mxCell id="hJSbbheGE9ecB6tRiey5-75" value="" style="curved=1;startArrow=none;endArrow=block;exitX=0.5;exitY=1;entryX=0.5;entryY=0;rounded=0;fontSize=30;" edge="1" parent="1" source="hJSbbheGE9ecB6tRiey5-16" target="hJSbbheGE9ecB6tRiey5-17">
          <mxGeometry relative="1" as="geometry">
            <Array as="points" />
          </mxGeometry>
        </mxCell>
        <mxCell id="hJSbbheGE9ecB6tRiey5-76" value="" style="curved=1;startArrow=none;endArrow=block;exitX=0.5;exitY=1;entryX=0.5;entryY=0;rounded=0;fontSize=30;" edge="1" parent="1" source="hJSbbheGE9ecB6tRiey5-17" target="hJSbbheGE9ecB6tRiey5-18">
          <mxGeometry relative="1" as="geometry">
            <Array as="points" />
          </mxGeometry>
        </mxCell>
        <mxCell id="hJSbbheGE9ecB6tRiey5-77" value="" style="curved=1;startArrow=none;endArrow=block;exitX=0.5;exitY=1;entryX=0.5;entryY=0;rounded=0;fontSize=30;" edge="1" parent="1" source="hJSbbheGE9ecB6tRiey5-18" target="hJSbbheGE9ecB6tRiey5-19">
          <mxGeometry relative="1" as="geometry">
            <Array as="points" />
          </mxGeometry>
        </mxCell>
        <mxCell id="hJSbbheGE9ecB6tRiey5-78" value="" style="curved=1;startArrow=none;endArrow=block;exitX=0.5;exitY=1;entryX=0.5;entryY=0;rounded=0;fontSize=30;" edge="1" parent="1" source="hJSbbheGE9ecB6tRiey5-19" target="hJSbbheGE9ecB6tRiey5-20">
          <mxGeometry relative="1" as="geometry">
            <Array as="points" />
          </mxGeometry>
        </mxCell>
        <mxCell id="hJSbbheGE9ecB6tRiey5-79" value="" style="curved=1;startArrow=none;endArrow=block;exitX=0.5;exitY=1;entryX=0.5;entryY=0;rounded=0;fontSize=30;" edge="1" parent="1" source="hJSbbheGE9ecB6tRiey5-20" target="hJSbbheGE9ecB6tRiey5-21">
          <mxGeometry relative="1" as="geometry">
            <Array as="points" />
          </mxGeometry>
        </mxCell>
        <mxCell id="hJSbbheGE9ecB6tRiey5-80" value="" style="curved=1;startArrow=none;endArrow=block;exitX=0.5;exitY=1;entryX=0.5;entryY=0;rounded=0;fontSize=30;" edge="1" parent="1" source="hJSbbheGE9ecB6tRiey5-21" target="hJSbbheGE9ecB6tRiey5-22">
          <mxGeometry relative="1" as="geometry">
            <Array as="points" />
          </mxGeometry>
        </mxCell>
        <mxCell id="hJSbbheGE9ecB6tRiey5-81" value="" style="curved=1;startArrow=none;endArrow=block;exitX=0.5;exitY=1;entryX=0.5;entryY=0;rounded=0;fontSize=30;" edge="1" parent="1" source="hJSbbheGE9ecB6tRiey5-22" target="hJSbbheGE9ecB6tRiey5-23">
          <mxGeometry relative="1" as="geometry">
            <Array as="points" />
          </mxGeometry>
        </mxCell>
        <mxCell id="hJSbbheGE9ecB6tRiey5-82" value="" style="curved=1;startArrow=none;endArrow=block;exitX=0;exitY=0.93;entryX=0.5;entryY=0.01;rounded=0;fontSize=30;" edge="1" parent="1" source="hJSbbheGE9ecB6tRiey5-23" target="hJSbbheGE9ecB6tRiey5-24">
          <mxGeometry relative="1" as="geometry">
            <Array as="points">
              <mxPoint x="132" y="2828" />
            </Array>
          </mxGeometry>
        </mxCell>
        <mxCell id="hJSbbheGE9ecB6tRiey5-83" value="" style="curved=1;startArrow=none;endArrow=block;exitX=0.5;exitY=1;entryX=0.5;entryY=0;rounded=0;fontSize=30;" edge="1" parent="1" source="hJSbbheGE9ecB6tRiey5-24" target="hJSbbheGE9ecB6tRiey5-25">
          <mxGeometry relative="1" as="geometry">
            <Array as="points" />
          </mxGeometry>
        </mxCell>
        <mxCell id="hJSbbheGE9ecB6tRiey5-84" value="" style="curved=1;startArrow=none;endArrow=block;exitX=0.5;exitY=1;entryX=0.5;entryY=0;rounded=0;fontSize=30;" edge="1" parent="1" source="hJSbbheGE9ecB6tRiey5-25" target="hJSbbheGE9ecB6tRiey5-26">
          <mxGeometry relative="1" as="geometry">
            <Array as="points" />
          </mxGeometry>
        </mxCell>
        <mxCell id="hJSbbheGE9ecB6tRiey5-85" value="" style="curved=1;startArrow=none;endArrow=block;exitX=0.5;exitY=1;entryX=0.5;entryY=0;rounded=0;fontSize=30;" edge="1" parent="1" source="hJSbbheGE9ecB6tRiey5-26" target="hJSbbheGE9ecB6tRiey5-27">
          <mxGeometry relative="1" as="geometry">
            <Array as="points" />
          </mxGeometry>
        </mxCell>
        <mxCell id="hJSbbheGE9ecB6tRiey5-86" value="" style="curved=1;startArrow=none;endArrow=block;exitX=0.5;exitY=1;entryX=0.5;entryY=0;rounded=0;fontSize=30;" edge="1" parent="1" source="hJSbbheGE9ecB6tRiey5-27" target="hJSbbheGE9ecB6tRiey5-28">
          <mxGeometry relative="1" as="geometry">
            <Array as="points" />
          </mxGeometry>
        </mxCell>
        <mxCell id="hJSbbheGE9ecB6tRiey5-87" value="" style="curved=1;startArrow=none;endArrow=block;exitX=0.5;exitY=1;entryX=0.5;entryY=0;rounded=0;fontSize=30;" edge="1" parent="1" source="hJSbbheGE9ecB6tRiey5-28" target="hJSbbheGE9ecB6tRiey5-29">
          <mxGeometry relative="1" as="geometry">
            <Array as="points" />
          </mxGeometry>
        </mxCell>
        <mxCell id="hJSbbheGE9ecB6tRiey5-88" value="" style="curved=1;startArrow=none;endArrow=block;exitX=0.5;exitY=1;entryX=0.5;entryY=0;rounded=0;fontSize=30;" edge="1" parent="1" source="hJSbbheGE9ecB6tRiey5-29" target="hJSbbheGE9ecB6tRiey5-30">
          <mxGeometry relative="1" as="geometry">
            <Array as="points" />
          </mxGeometry>
        </mxCell>
        <mxCell id="hJSbbheGE9ecB6tRiey5-89" value="" style="curved=1;startArrow=none;endArrow=block;exitX=1;exitY=0.93;entryX=0.5;entryY=0.01;rounded=0;fontSize=30;" edge="1" parent="1" source="hJSbbheGE9ecB6tRiey5-23" target="hJSbbheGE9ecB6tRiey5-31">
          <mxGeometry relative="1" as="geometry">
            <Array as="points">
              <mxPoint x="395" y="2828" />
            </Array>
          </mxGeometry>
        </mxCell>
        <mxCell id="hJSbbheGE9ecB6tRiey5-90" value="" style="curved=1;startArrow=none;endArrow=block;exitX=0.5;exitY=1.01;entryX=0.5;entryY=0.01;rounded=0;fontSize=30;" edge="1" parent="1" source="hJSbbheGE9ecB6tRiey5-31" target="hJSbbheGE9ecB6tRiey5-32">
          <mxGeometry relative="1" as="geometry">
            <Array as="points" />
          </mxGeometry>
        </mxCell>
        <mxCell id="hJSbbheGE9ecB6tRiey5-91" value="" style="curved=1;startArrow=none;endArrow=block;exitX=0.5;exitY=1.01;entryX=0.5;entryY=0.01;rounded=0;fontSize=30;" edge="1" parent="1" source="hJSbbheGE9ecB6tRiey5-32" target="hJSbbheGE9ecB6tRiey5-33">
          <mxGeometry relative="1" as="geometry">
            <Array as="points" />
          </mxGeometry>
        </mxCell>
        <mxCell id="hJSbbheGE9ecB6tRiey5-92" value="" style="curved=1;startArrow=none;endArrow=block;exitX=0.5;exitY=1.01;entryX=0.5;entryY=0.01;rounded=0;fontSize=30;" edge="1" parent="1" source="hJSbbheGE9ecB6tRiey5-33" target="hJSbbheGE9ecB6tRiey5-34">
          <mxGeometry relative="1" as="geometry">
            <Array as="points" />
          </mxGeometry>
        </mxCell>
        <mxCell id="hJSbbheGE9ecB6tRiey5-93" value="" style="curved=1;startArrow=none;endArrow=block;exitX=0.5;exitY=1.01;entryX=0.5;entryY=0.01;rounded=0;fontSize=30;" edge="1" parent="1" source="hJSbbheGE9ecB6tRiey5-34" target="hJSbbheGE9ecB6tRiey5-35">
          <mxGeometry relative="1" as="geometry">
            <Array as="points" />
          </mxGeometry>
        </mxCell>
        <mxCell id="hJSbbheGE9ecB6tRiey5-94" value="" style="curved=1;startArrow=none;endArrow=block;exitX=0.5;exitY=1.01;entryX=0.5;entryY=0.01;rounded=0;fontSize=30;" edge="1" parent="1" source="hJSbbheGE9ecB6tRiey5-35" target="hJSbbheGE9ecB6tRiey5-36">
          <mxGeometry relative="1" as="geometry">
            <Array as="points" />
          </mxGeometry>
        </mxCell>
        <mxCell id="hJSbbheGE9ecB6tRiey5-95" value="" style="curved=1;startArrow=none;endArrow=block;exitX=0.5;exitY=1.01;entryX=0.5;entryY=0.01;rounded=0;fontSize=30;" edge="1" parent="1" source="hJSbbheGE9ecB6tRiey5-36" target="hJSbbheGE9ecB6tRiey5-37">
          <mxGeometry relative="1" as="geometry">
            <Array as="points" />
          </mxGeometry>
        </mxCell>
        <mxCell id="hJSbbheGE9ecB6tRiey5-96" value="" style="curved=1;startArrow=none;endArrow=block;exitX=0.5;exitY=1.01;entryX=0.5;entryY=0.01;rounded=0;fontSize=30;" edge="1" parent="1" source="hJSbbheGE9ecB6tRiey5-37" target="hJSbbheGE9ecB6tRiey5-38">
          <mxGeometry relative="1" as="geometry">
            <Array as="points" />
          </mxGeometry>
        </mxCell>
        <mxCell id="hJSbbheGE9ecB6tRiey5-97" value="" style="curved=1;startArrow=none;endArrow=block;exitX=0.5;exitY=1;entryX=0.5;entryY=0;rounded=0;fontSize=30;" edge="1" parent="1" source="hJSbbheGE9ecB6tRiey5-38" target="hJSbbheGE9ecB6tRiey5-39">
          <mxGeometry relative="1" as="geometry">
            <Array as="points" />
          </mxGeometry>
        </mxCell>
        <mxCell id="hJSbbheGE9ecB6tRiey5-98" value="" style="curved=1;startArrow=none;endArrow=block;exitX=0.5;exitY=1;entryX=0.5;entryY=0;rounded=0;fontSize=30;" edge="1" parent="1" source="hJSbbheGE9ecB6tRiey5-39" target="hJSbbheGE9ecB6tRiey5-40">
          <mxGeometry relative="1" as="geometry">
            <Array as="points" />
          </mxGeometry>
        </mxCell>
        <mxCell id="hJSbbheGE9ecB6tRiey5-99" value="" style="curved=1;startArrow=none;endArrow=block;exitX=0.5;exitY=1;entryX=0.5;entryY=0;rounded=0;fontSize=30;" edge="1" parent="1" source="hJSbbheGE9ecB6tRiey5-40" target="hJSbbheGE9ecB6tRiey5-41">
          <mxGeometry relative="1" as="geometry">
            <Array as="points" />
          </mxGeometry>
        </mxCell>
        <mxCell id="hJSbbheGE9ecB6tRiey5-100" value="" style="curved=1;startArrow=none;endArrow=block;exitX=0.5;exitY=1;entryX=0.5;entryY=0;rounded=0;fontSize=30;" edge="1" parent="1" source="hJSbbheGE9ecB6tRiey5-41" target="hJSbbheGE9ecB6tRiey5-42">
          <mxGeometry relative="1" as="geometry">
            <Array as="points" />
          </mxGeometry>
        </mxCell>
        <mxCell id="hJSbbheGE9ecB6tRiey5-101" value="" style="curved=1;startArrow=none;endArrow=block;exitX=0.5;exitY=1;entryX=0.5;entryY=0;rounded=0;fontSize=30;" edge="1" parent="1" source="hJSbbheGE9ecB6tRiey5-42" target="hJSbbheGE9ecB6tRiey5-43">
          <mxGeometry relative="1" as="geometry">
            <Array as="points" />
          </mxGeometry>
        </mxCell>
        <mxCell id="hJSbbheGE9ecB6tRiey5-102" value="" style="curved=1;startArrow=none;endArrow=block;exitX=0.5;exitY=1;entryX=0.5;entryY=0;rounded=0;fontSize=30;" edge="1" parent="1" source="hJSbbheGE9ecB6tRiey5-43" target="hJSbbheGE9ecB6tRiey5-44">
          <mxGeometry relative="1" as="geometry">
            <Array as="points" />
          </mxGeometry>
        </mxCell>
        <mxCell id="hJSbbheGE9ecB6tRiey5-103" value="" style="curved=1;startArrow=none;endArrow=block;exitX=0.5;exitY=1;entryX=0.18;entryY=0;rounded=0;fontSize=30;" edge="1" parent="1" source="hJSbbheGE9ecB6tRiey5-30" target="hJSbbheGE9ecB6tRiey5-45">
          <mxGeometry relative="1" as="geometry">
            <Array as="points">
              <mxPoint x="132" y="4284" />
            </Array>
          </mxGeometry>
        </mxCell>
        <mxCell id="hJSbbheGE9ecB6tRiey5-104" value="" style="curved=1;startArrow=none;endArrow=block;exitX=0.5;exitY=1;entryX=0.83;entryY=0;rounded=0;fontSize=30;" edge="1" parent="1" source="hJSbbheGE9ecB6tRiey5-44" target="hJSbbheGE9ecB6tRiey5-45">
          <mxGeometry relative="1" as="geometry">
            <Array as="points">
              <mxPoint x="395" y="4284" />
            </Array>
          </mxGeometry>
        </mxCell>
        <mxCell id="hJSbbheGE9ecB6tRiey5-105" value="" style="curved=1;startArrow=none;endArrow=block;exitX=1;exitY=0.92;entryX=0.5;entryY=0;rounded=0;fontSize=30;" edge="1" parent="1" source="hJSbbheGE9ecB6tRiey5-15" target="hJSbbheGE9ecB6tRiey5-46">
          <mxGeometry relative="1" as="geometry">
            <Array as="points">
              <mxPoint x="518" y="1797" />
            </Array>
          </mxGeometry>
        </mxCell>
        <mxCell id="hJSbbheGE9ecB6tRiey5-106" value="" style="curved=1;startArrow=none;endArrow=block;exitX=0.5;exitY=1;entryX=0.5;entryY=0;rounded=0;fontSize=30;" edge="1" parent="1" source="hJSbbheGE9ecB6tRiey5-46" target="hJSbbheGE9ecB6tRiey5-47">
          <mxGeometry relative="1" as="geometry">
            <Array as="points" />
          </mxGeometry>
        </mxCell>
        <mxCell id="hJSbbheGE9ecB6tRiey5-107" value="" style="curved=1;startArrow=none;endArrow=block;exitX=0.5;exitY=1;entryX=0.02;entryY=0;rounded=0;fontSize=30;" edge="1" parent="1" source="hJSbbheGE9ecB6tRiey5-47" target="hJSbbheGE9ecB6tRiey5-48">
          <mxGeometry relative="1" as="geometry">
            <Array as="points">
              <mxPoint x="518" y="2029" />
            </Array>
          </mxGeometry>
        </mxCell>
        <mxCell id="hJSbbheGE9ecB6tRiey5-108" value="" style="curved=1;startArrow=none;endArrow=block;exitX=0.68;exitY=0;entryX=0.82;entryY=0.99;rounded=0;fontSize=30;" edge="1" parent="1" source="hJSbbheGE9ecB6tRiey5-48">
          <mxGeometry relative="1" as="geometry">
            <Array as="points">
              <mxPoint x="769" y="2029" />
              <mxPoint x="769" y="1303" />
            </Array>
            <mxPoint x="713.908163265306" y="1278" as="targetPoint" />
          </mxGeometry>
        </mxCell>
        <mxCell id="hJSbbheGE9ecB6tRiey5-109" value="" style="curved=1;startArrow=none;endArrow=block;exitX=0.5;exitY=0.99;entryX=0.5;entryY=0;rounded=0;fontSize=30;" edge="1" parent="1" source="hJSbbheGE9ecB6tRiey5-49" target="hJSbbheGE9ecB6tRiey5-50">
          <mxGeometry relative="1" as="geometry">
            <Array as="points" />
          </mxGeometry>
        </mxCell>
        <mxCell id="hJSbbheGE9ecB6tRiey5-110" value="Yes" style="curved=1;startArrow=none;endArrow=block;exitX=0;exitY=1;entryX=0.49;entryY=-0.01;rounded=0;fontSize=30;exitDx=0;exitDy=0;" edge="1" parent="1" source="hJSbbheGE9ecB6tRiey5-50" target="hJSbbheGE9ecB6tRiey5-51">
          <mxGeometry relative="1" as="geometry">
            <Array as="points" />
          </mxGeometry>
        </mxCell>
        <mxCell id="hJSbbheGE9ecB6tRiey5-111" value="No" style="curved=1;startArrow=none;endArrow=block;exitX=1;exitY=0.64;entryX=0.5;entryY=-0.01;rounded=0;fontSize=30;" edge="1" parent="1" source="hJSbbheGE9ecB6tRiey5-50" target="hJSbbheGE9ecB6tRiey5-52">
          <mxGeometry x="0.0567" y="-6" relative="1" as="geometry">
            <Array as="points">
              <mxPoint x="1007" y="1598" />
            </Array>
            <mxPoint y="1" as="offset" />
          </mxGeometry>
        </mxCell>
        <mxCell id="hJSbbheGE9ecB6tRiey5-112" value="" style="curved=1;startArrow=none;endArrow=block;exitX=0.5;exitY=0.99;entryX=0.5;entryY=0;rounded=0;fontSize=30;" edge="1" parent="1" source="hJSbbheGE9ecB6tRiey5-52" target="hJSbbheGE9ecB6tRiey5-53">
          <mxGeometry relative="1" as="geometry">
            <Array as="points" />
          </mxGeometry>
        </mxCell>
        <mxCell id="hJSbbheGE9ecB6tRiey5-113" value="" style="curved=1;startArrow=none;endArrow=block;exitX=0.5;exitY=1;entryX=0.5;entryY=0;rounded=0;fontSize=30;" edge="1" parent="1" source="hJSbbheGE9ecB6tRiey5-53" target="hJSbbheGE9ecB6tRiey5-54">
          <mxGeometry relative="1" as="geometry">
            <Array as="points" />
          </mxGeometry>
        </mxCell>
        <mxCell id="hJSbbheGE9ecB6tRiey5-114" value="" style="curved=1;startArrow=none;endArrow=block;exitX=0.5;exitY=1;entryX=0.5;entryY=0;rounded=0;fontSize=30;" edge="1" parent="1" source="hJSbbheGE9ecB6tRiey5-54" target="hJSbbheGE9ecB6tRiey5-55">
          <mxGeometry relative="1" as="geometry">
            <Array as="points" />
          </mxGeometry>
        </mxCell>
        <mxCell id="hJSbbheGE9ecB6tRiey5-115" value="" style="curved=1;startArrow=none;endArrow=block;exitX=0.5;exitY=1;entryX=0.5;entryY=0;rounded=0;fontSize=30;" edge="1" parent="1" source="hJSbbheGE9ecB6tRiey5-55" target="hJSbbheGE9ecB6tRiey5-56">
          <mxGeometry relative="1" as="geometry">
            <Array as="points" />
          </mxGeometry>
        </mxCell>
        <mxCell id="hJSbbheGE9ecB6tRiey5-116" value="" style="curved=1;startArrow=none;endArrow=block;exitX=0.5;exitY=1;entryX=0.5;entryY=0;rounded=0;fontSize=30;" edge="1" parent="1" source="hJSbbheGE9ecB6tRiey5-56" target="hJSbbheGE9ecB6tRiey5-57">
          <mxGeometry relative="1" as="geometry">
            <Array as="points" />
          </mxGeometry>
        </mxCell>
        <mxCell id="hJSbbheGE9ecB6tRiey5-117" value="" style="curved=1;startArrow=none;endArrow=block;exitX=0.5;exitY=1;entryX=0.5;entryY=0;rounded=0;fontSize=30;" edge="1" parent="1" source="hJSbbheGE9ecB6tRiey5-57" target="hJSbbheGE9ecB6tRiey5-58">
          <mxGeometry relative="1" as="geometry">
            <Array as="points" />
          </mxGeometry>
        </mxCell>
        <mxCell id="hJSbbheGE9ecB6tRiey5-118" value="" style="curved=1;startArrow=none;endArrow=block;exitX=0.5;exitY=1;entryX=0.5;entryY=0;rounded=0;fontSize=30;" edge="1" parent="1" source="hJSbbheGE9ecB6tRiey5-58" target="hJSbbheGE9ecB6tRiey5-59">
          <mxGeometry relative="1" as="geometry">
            <Array as="points" />
          </mxGeometry>
        </mxCell>
        <mxCell id="hJSbbheGE9ecB6tRiey5-119" value="" style="curved=1;startArrow=none;endArrow=block;exitX=0.5;exitY=0.99;entryX=0.5;entryY=-0.01;rounded=0;fontSize=30;" edge="1" parent="1" target="hJSbbheGE9ecB6tRiey5-49">
          <mxGeometry relative="1" as="geometry">
            <Array as="points" />
            <mxPoint x="653.5" y="1278" as="sourcePoint" />
          </mxGeometry>
        </mxCell>
      </root>
    </mxGraphModel>
  </diagram>
</mxfile>
